<svg width="27" height="24" viewBox="0 0 27 24" fill="none" xmlns="http://www.w3.org/2000/svg">
<path d="M13.1558 6C12.8651 6 12.5862 6.10536 12.3806 6.29289C12.175 6.48043 12.0595 6.73478 12.0595 7V17C12.0595 17.2652 12.175 17.5196 12.3806 17.7071C12.5862 17.8946 12.8651 18 13.1558 18C13.4466 18 13.7255 17.8946 13.9311 17.7071C14.1367 17.5196 14.2522 17.2652 14.2522 17V7C14.2522 6.73478 14.1367 6.48043 13.9311 6.29289C13.7255 6.10536 13.4466 6 13.1558 6ZM7.67411 12C7.38334 12 7.10448 12.1054 6.89888 12.2929C6.69327 12.4804 6.57777 12.7348 6.57777 13V17C6.57777 17.2652 6.69327 17.5196 6.89888 17.7071C7.10448 17.8946 7.38334 18 7.67411 18C7.96488 18 8.24374 17.8946 8.44935 17.7071C8.65495 17.5196 8.77046 17.2652 8.77046 17V13C8.77046 12.7348 8.65495 12.4804 8.44935 12.2929C8.24374 12.1054 7.96488 12 7.67411 12ZM18.6376 10C18.3468 10 18.0679 10.1054 17.8623 10.2929C17.6567 10.4804 17.5412 10.7348 17.5412 11V17C17.5412 17.2652 17.6567 17.5196 17.8623 17.7071C18.0679 17.8946 18.3468 18 18.6376 18C18.9283 18 19.2072 17.8946 19.4128 17.7071C19.6184 17.5196 19.7339 17.2652 19.7339 17V11C19.7339 10.7348 19.6184 10.4804 19.4128 10.2929C19.2072 10.1054 18.9283 10 18.6376 10ZM20.8303 2H5.48142C4.60911 2 3.77253 2.31607 3.15572 2.87868C2.53891 3.44129 2.19238 4.20435 2.19238 5V19C2.19238 19.7956 2.53891 20.5587 3.15572 21.1213C3.77253 21.6839 4.60911 22 5.48142 22H20.8303C21.7026 22 22.5392 21.6839 23.156 21.1213C23.7728 20.5587 24.1193 19.7956 24.1193 19V5C24.1193 4.20435 23.7728 3.44129 23.156 2.87868C22.5392 2.31607 21.7026 2 20.8303 2ZM21.9266 19C21.9266 19.2652 21.8111 19.5196 21.6055 19.7071C21.3999 19.8946 21.121 20 20.8303 20H5.48142C5.19065 20 4.91179 19.8946 4.70619 19.7071C4.50058 19.5196 4.38508 19.2652 4.38508 19V5C4.38508 4.73478 4.50058 4.48043 4.70619 4.29289C4.91179 4.10536 5.19065 4 5.48142 4H20.8303C21.121 4 21.3999 4.10536 21.6055 4.29289C21.8111 4.48043 21.9266 4.73478 21.9266 5V19Z" fill="#559638"/>
</svg>
