<?xml version="1.0" encoding="UTF-8"?>
<svg version="1.1" xmlns="http://www.w3.org/2000/svg" width="225" height="225">
<path d="M0 0 C3.41059403 1.60535287 5.61792484 3.40518901 8.25 6.125 C8.95640625 6.84945313 9.6628125 7.57390625 10.390625 8.3203125 C11.18726563 9.15175781 11.18726563 9.15175781 12 10 C10.66545666 13.70911742 8.22569183 15.60912032 5.2762956 18.10337251 C0.34396991 22.41338402 -3.59667919 26.22709457 -4.45597661 32.92590702 C-4.66729565 36.65470732 -4.61252817 40.34656208 -4.50415039 44.07788086 C-4.50379665 45.75477919 -4.50924372 47.43168709 -4.51998901 49.10855103 C-4.53326916 53.62419061 -4.46775817 58.13557943 -4.38832402 62.6504066 C-4.31984726 67.38938136 -4.32890555 72.12819147 -4.33042908 76.86756897 C-4.32241514 85.83161704 -4.25185604 94.79392864 -4.15546268 103.75742012 C-3.98495834 119.82430732 -3.92604145 135.89187717 -3.88332742 151.95954806 C-3.86592081 157.59407863 -3.8225409 163.22764753 -3.75707924 168.86181915 C-3.71939528 172.36267515 -3.69748282 175.86351658 -3.67898178 179.36452103 C-3.66675134 180.98592703 -3.64753036 182.60729785 -3.62075996 184.22852898 C-3.58491697 186.44403132 -3.57383023 188.65837484 -3.5684967 190.87413025 C-3.55529923 192.11272765 -3.54210176 193.35132505 -3.52850437 194.62745571 C-4.25763067 199.84279723 -6.74310688 202.89273701 -10.625 206.3125 C-14.58095514 209.12331023 -16.77074258 209.10836936 -21.63139343 209.05728149 C-22.32080625 209.05163598 -23.01021906 209.04599047 -23.72052318 209.04017389 C-25.23628007 209.02721941 -26.75201845 209.01195049 -28.26773262 208.99470711 C-31.597771 208.95695049 -34.927874 208.93035523 -38.25801146 208.9029882 C-40.05268625 208.88813585 -41.84735632 208.8727038 -43.64202154 208.85673738 C-55.17448085 208.75595272 -66.70721853 208.73165843 -78.24004495 208.70361447 C-89.46711163 208.67580801 -100.69277686 208.62424514 -111.91918945 208.49609375 C-120.83488967 208.39445977 -129.74908395 208.3464049 -138.66537791 208.36030996 C-143.38055112 208.36571885 -148.0922048 208.34499868 -152.80667686 208.25941849 C-174.81322968 206.86732064 -174.81322968 206.86732064 -193.9887743 215.48149681 C-196.73295072 218.48822647 -198.91807373 221.49968347 -201 225 C-204.41059403 223.39464713 -206.61792484 221.59481099 -209.25 218.875 C-209.95640625 218.15054688 -210.6628125 217.42609375 -211.390625 216.6796875 C-212.18726563 215.84824219 -212.18726563 215.84824219 -213 215 C-211.59166824 211.81083779 -209.91923485 209.67022034 -207.45863914 207.21254349 C-206.71966058 206.46958283 -205.98068202 205.72662217 -205.21931016 204.96114755 C-203.99656355 203.74713946 -203.99656355 203.74713946 -202.74911499 202.50860596 C-201.45410739 201.21103509 -201.45410739 201.21103509 -200.13293803 199.88725066 C-197.73531712 197.48690273 -195.33328431 195.09112947 -192.92929792 192.69716668 C-190.33809959 190.11459803 -187.75267615 187.52625959 -185.16654968 184.93861389 C-180.68503097 180.45604602 -176.19986231 175.97715718 -171.71220016 171.50074005 C-165.22378543 165.02857319 -158.74089446 158.55089663 -152.25934227 152.07185814 C-141.74353439 141.56042848 -131.22326709 131.05347374 -120.70019531 120.54931641 C-110.47747629 110.34495289 -100.25685806 100.13849278 -90.0390625 89.92919922 C-89.40933188 89.29999405 -88.77960126 88.67078887 -88.13078789 88.02251688 C-84.97165575 84.86599479 -81.8125649 81.70943136 -78.6534946 78.55284739 C-52.4420639 52.36215314 -26.22339574 26.17871398 0 0 Z M-23.26311588 46.14006805 C-24.06922385 46.94755871 -24.06922385 46.94755871 -24.89161682 47.7713623 C-25.50722473 48.38559555 -26.12283264 48.9998288 -26.75709534 49.63267517 C-27.43610397 50.31527908 -28.11511261 50.997883 -28.81469727 51.70117188 C-29.52685394 52.41318253 -30.23901062 53.12519318 -30.9727478 53.85877991 C-33.33967688 56.22640887 -35.70303856 58.59756648 -38.06640625 60.96875 C-39.70143762 62.60564529 -41.33668908 64.24232077 -42.97215271 65.87878418 C-47.28653984 70.19699861 -51.59791623 74.51820709 -55.90869141 78.84002686 C-60.3038642 83.24540922 -64.70185157 87.64797969 -69.09960938 92.05078125 C-77.73584408 100.69775702 -86.36890364 109.34789553 -95 118 C-94.03770644 119.12764538 -93.07471216 120.25469282 -92.11141968 121.38148499 C-91.57522696 122.00917314 -91.03903423 122.63686129 -90.48659325 123.28357029 C-88.9788742 125.02439198 -87.42654513 126.68930537 -85.7890625 128.30859375 C-85.00595703 129.08686523 -85.00595703 129.08686523 -84.20703125 129.88085938 C-83.68496094 130.39455078 -83.16289062 130.90824219 -82.625 131.4375 C-82.07972656 131.97826172 -81.53445312 132.51902344 -80.97265625 133.07617188 C-79.65076536 134.38646723 -78.32572382 135.69358284 -77 137 C-72.30100646 133.00493279 -72.30100646 133.00493279 -67.70703125 128.890625 C-66.55267578 127.83101562 -66.55267578 127.83101562 -65.375 126.75 C-64.66085938 126.08484375 -63.94671875 125.4196875 -63.2109375 124.734375 C-58.71894406 121.21062043 -54.64154761 120.42628329 -49 121 C-41.40351644 123.97611152 -36.64114679 128.91719092 -31.0625 134.75 C-29.36780888 136.49665996 -27.67129986 138.24155863 -25.97265625 139.984375 C-25.23281494 140.75491211 -24.49297363 141.52544922 -23.73071289 142.31933594 C-22.28251062 144.11610962 -22.28251062 144.11610962 -21 144 C-21 111.33 -21 78.66 -21 45 C-22.15986568 44.88832937 -22.15986568 44.88832937 -23.26311588 46.14006805 Z M-112.05651855 134.79656982 C-112.61037231 135.35604309 -113.16422607 135.91551636 -113.73486328 136.49194336 C-114.32036957 137.0755513 -114.90587585 137.65915924 -115.50912476 138.26045227 C-117.45111352 140.19872391 -119.38578783 142.14412454 -121.3203125 144.08984375 C-122.66230453 145.43302708 -124.00466553 146.77584185 -125.34738159 148.11830139 C-128.16324418 150.93573043 -130.97570705 153.75649579 -133.78564453 156.57983398 C-137.39679463 160.20798228 -141.01450095 163.82950461 -144.63453865 167.44878292 C-147.40737934 170.22189487 -150.17761104 172.99760041 -152.94695663 175.77420235 C-154.28048111 177.11092026 -155.61462209 178.44702344 -156.94937515 179.78251457 C-158.81009548 181.64539087 -160.66749207 183.5115153 -162.52392578 185.37866211 C-163.36077911 186.21483566 -163.36077911 186.21483566 -164.21453857 187.06790161 C-166.82118069 189.18223395 -166.82118069 189.18223395 -168 192 C-119.49 192 -70.98 192 -21 192 C-19.1995173 170.10979894 -19.1995173 170.10979894 -30.04418945 156.54467773 C-30.69605225 155.99239502 -31.34791504 155.4401123 -32.01953125 154.87109375 C-33.12095459 153.91759033 -33.12095459 153.91759033 -34.24462891 152.94482422 C-34.98890137 152.30303223 -35.73317383 151.66124023 -36.5 151 C-37.99893509 149.62178452 -39.49248188 148.2376848 -40.98046875 146.84765625 C-44.5952402 143.49417136 -48.2730368 140.22815893 -52 137 C-53.11982785 137.95170467 -54.23850148 138.90476756 -55.35668945 139.85839844 C-55.97977493 140.38898865 -56.60286041 140.91957886 -57.24482727 141.46624756 C-60.03537398 143.90475846 -62.55318284 146.58338564 -65.10546875 149.265625 C-68.68023025 152.53819017 -71.56079564 153.30757417 -76.375 153.375 C-77.74785156 153.41753906 -77.74785156 153.41753906 -79.1484375 153.4609375 C-86.87241628 152.21240394 -92.07478072 145.09216184 -97.25 139.75 C-98.85475206 138.09446465 -100.46389778 136.44317296 -102.078125 134.796875 C-102.78356445 134.06823242 -103.48900391 133.33958984 -104.21582031 132.58886719 C-107.75652308 129.43576188 -109.17339463 131.9372703 -112.05651855 134.79656982 Z " fill="#549538" transform="translate(213,0)"/>
<path d="M0 0 C1.13024597 -0.00137466 2.26049194 -0.00274933 3.42498779 -0.00416565 C5.29370041 0.00122726 5.29370041 0.00122726 7.20016479 0.00672913 C8.5074353 0.0065831 9.81470581 0.00643707 11.16159058 0.00628662 C14.75228038 0.00599901 18.34293696 0.01188985 21.93361902 0.01886058 C25.68391407 0.02510018 29.43420984 0.0256984 33.18450928 0.02688599 C40.28889308 0.02999751 47.39326154 0.03820849 54.49763858 0.04823548 C62.58459065 0.05940216 70.67154344 0.06490847 78.75850129 0.06993091 C95.39645436 0.08039124 112.034391 0.09818802 128.67233276 0.12025452 C128.67233276 5.73025452 128.67233276 11.34025452 128.67233276 17.12025452 C86.43233276 17.12025452 44.19233276 17.12025452 0.67233276 17.12025452 C1.00233276 42.86025452 1.33233276 68.60025452 1.67233276 95.12025452 C10.62532482 86.04881737 10.62532482 86.04881737 19.56149292 76.96083069 C20.69419124 75.8193634 21.82745493 74.67845674 22.96139526 73.53822327 C23.53526978 72.94900085 24.10914429 72.35977844 24.70040894 71.75270081 C29.17377631 67.27647688 33.07115865 64.41393546 39.54733276 63.68275452 C49.86799086 64.22902753 56.06261497 72.07312893 62.67233276 79.12025452 C61.13589424 82.80095339 58.89082331 85.10800656 56.04733276 87.87025452 C55.23006714 88.66947327 54.41280151 89.46869202 53.57077026 90.29212952 C52.94428589 90.89541077 52.31780151 91.49869202 51.67233276 92.12025452 C51.22502808 91.73353577 50.77772339 91.34681702 50.31686401 90.94837952 C49.7122937 90.42759827 49.10772339 89.90681702 48.48483276 89.37025452 C47.89315308 88.85978577 47.30147339 88.34931702 46.69186401 87.82337952 C44.38585428 85.87865951 42.03043175 84.00130108 39.67233276 82.12025452 C34.19197637 86.9842215 28.81448773 91.94623384 23.49191284 96.98231506 C21.67699738 98.67766114 19.84097543 100.35073469 17.98312378 101.99891663 C8.51705907 110.4231269 0.93083048 117.28399768 0.01594543 130.46939087 C-0.03433994 135.40333915 0.20499568 140.20702278 0.67233276 145.12025452 C-4.93766724 145.12025452 -10.54766724 145.12025452 -16.32766724 145.12025452 C-16.42029649 127.75247892 -16.49166263 110.38480211 -16.53491592 93.01683617 C-16.55553375 84.95242779 -16.58363931 76.8881758 -16.62942505 68.8238678 C-16.66931685 61.79431129 -16.69510572 54.76486804 -16.70402122 47.73520148 C-16.70923206 44.01362118 -16.72146273 40.29236489 -16.75058746 36.57088852 C-16.7828514 32.41450936 -16.78362515 28.25869211 -16.7817688 24.10218811 C-16.7961499 22.8707608 -16.81053101 21.6393335 -16.8253479 20.37059021 C-16.79447927 13.99469184 -16.71682057 9.91525808 -12.32766724 5.12025452 C-8.0014579 1.3090701 -5.71735516 -0.00534332 0 0 Z " fill="#549637" transform="translate(32.327667236328125,15.879745483398438)"/>
</svg>
