<?xml version="1.0" encoding="UTF-8"?>
<svg version="1.1" xmlns="http://www.w3.org/2000/svg" width="225" height="225">
<path d="M0 0 C1.71219727 -0.0309375 1.71219727 -0.0309375 3.45898438 -0.0625 C4.56177734 -0.06765625 5.66457031 -0.0728125 6.80078125 -0.078125 C7.80923096 -0.0874707 8.81768066 -0.09681641 9.85668945 -0.10644531 C13.15172393 0.30845338 15.02183197 1.30108796 17.6875 3.25 C18.93377931 5.74255861 18.8453086 7.51395097 18.8984375 10.30078125 C18.92679687 11.30947266 18.95515625 12.31816406 18.984375 13.35742188 C19.03616854 15.48225183 19.0805245 17.607277 19.1171875 19.73242188 C19.148125 20.74498047 19.1790625 21.75753906 19.2109375 22.80078125 C19.2406665 24.18777222 19.2406665 24.18777222 19.27099609 25.6027832 C19.76915734 28.76899796 20.81186023 30.66722953 22.6875 33.25 C25.42194798 34.95531334 25.42194798 34.95531334 28.5625 36.125 C29.59117187 36.55554687 30.61984375 36.98609375 31.6796875 37.4296875 C34.94012588 38.31889797 36.52093739 38.35461486 39.6875 37.25 C41.6667785 35.9667443 41.6667785 35.9667443 43.4375 34.25 C44.12199219 33.62996094 44.80648437 33.00992188 45.51171875 32.37109375 C47.0361456 30.88498283 48.51497064 29.35131846 49.95703125 27.78515625 C55.78142446 21.50433699 55.78142446 21.50433699 60.25 20.25 C65.29254793 21.71692303 68.0393005 24.57029618 71.6875 28.25 C72.65905825 29.19904202 73.63178248 30.14689139 74.60546875 31.09375 C83.43857241 39.75457682 83.43857241 39.75457682 84.2109375 44.39453125 C83.4499631 49.99961878 80.38662492 52.25368814 76.3125 55.9375 C74.9254736 57.22856055 73.54249455 58.52398621 72.1640625 59.82421875 C71.237146 60.66859497 71.237146 60.66859497 70.29150391 61.5300293 C68.58955067 63.35503091 67.60630923 64.93531313 66.6875 67.25 C67.05815904 71.10108462 68.44788225 74.41520182 70 77.9375 C70.40863281 78.89011719 70.81726563 79.84273438 71.23828125 80.82421875 C72.90152859 83.60825271 73.71785154 84.10234887 76.6875 85.25 C79.23113498 85.54968296 79.23113498 85.54968296 81.96875 85.5234375 C82.97550781 85.5440625 83.98226562 85.5646875 85.01953125 85.5859375 C87.13142855 85.61197816 89.2434366 85.63020807 91.35546875 85.640625 C92.36222656 85.66382812 93.36898437 85.68703125 94.40625 85.7109375 C95.32341797 85.71915527 96.24058594 85.72737305 97.18554688 85.73583984 C100.42450636 86.4014574 101.60734911 87.73892721 103.6875 90.25 C105.78705726 94.44911451 104.91686921 99.94893904 104.9375 104.5625 C104.9684375 106.27469727 104.9684375 106.27469727 105 108.02148438 C105.00773437 109.67567383 105.00773437 109.67567383 105.015625 111.36328125 C105.0249707 112.37173096 105.03431641 113.38018066 105.04394531 114.41918945 C104.62904662 117.71422393 103.63641204 119.58433197 101.6875 122.25 C99.19494139 123.49627931 97.42354903 123.4078086 94.63671875 123.4609375 C93.62802734 123.48929687 92.61933594 123.51765625 91.58007812 123.546875 C89.45524817 123.59866854 87.330223 123.6430245 85.20507812 123.6796875 C84.19251953 123.710625 83.17996094 123.7415625 82.13671875 123.7734375 C81.21205811 123.79325684 80.28739746 123.81307617 79.3347168 123.83349609 C76.16850204 124.33165734 74.27027047 125.37436023 71.6875 127.25 C69.98218666 129.98444798 69.98218666 129.98444798 68.8125 133.125 C68.38195312 134.15367187 67.95140625 135.18234375 67.5078125 136.2421875 C66.61860203 139.50262588 66.58288514 141.08343739 67.6875 144.25 C68.9707557 146.2292785 68.9707557 146.2292785 70.6875 148 C71.30753906 148.68449219 71.92757812 149.36898437 72.56640625 150.07421875 C74.05251717 151.5986456 75.58618154 153.07747064 77.15234375 154.51953125 C83.43316301 160.34392446 83.43316301 160.34392446 84.6875 164.8125 C83.22057697 169.85504793 80.36720382 172.6018005 76.6875 176.25 C75.73845798 177.22155825 74.79060861 178.19428248 73.84375 179.16796875 C65.18292318 188.00107241 65.18292318 188.00107241 60.54296875 188.7734375 C54.93788122 188.0124631 52.68381186 184.94912492 49 180.875 C47.70893945 179.4879736 46.41351379 178.10499455 45.11328125 176.7265625 C44.55036377 176.10861816 43.98744629 175.49067383 43.4074707 174.85400391 C41.58246909 173.15205067 40.00218687 172.16880923 37.6875 171.25 C33.83641538 171.62065904 30.52229818 173.01038225 27 174.5625 C26.04738281 174.97113281 25.09476563 175.37976563 24.11328125 175.80078125 C21.32924729 177.46402859 20.83515113 178.28035154 19.6875 181.25 C19.38781704 183.79363498 19.38781704 183.79363498 19.4140625 186.53125 C19.3934375 187.53800781 19.3728125 188.54476562 19.3515625 189.58203125 C19.32552184 191.69392855 19.30729193 193.8059366 19.296875 195.91796875 C19.27367187 196.92472656 19.25046875 197.93148437 19.2265625 198.96875 C19.21834473 199.88591797 19.21012695 200.80308594 19.20166016 201.74804688 C18.5360426 204.98700636 17.19857279 206.16984911 14.6875 208.25 C10.48838549 210.34955726 4.98856096 209.47936921 0.375 209.5 C-1.33719727 209.5309375 -1.33719727 209.5309375 -3.08398438 209.5625 C-4.18677734 209.56765625 -5.28957031 209.5728125 -6.42578125 209.578125 C-7.43423096 209.5874707 -8.44268066 209.59681641 -9.48168945 209.60644531 C-12.77672393 209.19154662 -14.64683197 208.19891204 -17.3125 206.25 C-18.55877931 203.75744139 -18.4703086 201.98604903 -18.5234375 199.19921875 C-18.55179687 198.19052734 -18.58015625 197.18183594 -18.609375 196.14257812 C-18.66116854 194.01774817 -18.7055245 191.892723 -18.7421875 189.76757812 C-18.773125 188.75501953 -18.8040625 187.74246094 -18.8359375 186.69921875 C-18.85575684 185.77455811 -18.87557617 184.84989746 -18.89599609 183.8972168 C-19.39415734 180.73100204 -20.43686023 178.83277047 -22.3125 176.25 C-25.04694798 174.54468666 -25.04694798 174.54468666 -28.1875 173.375 C-29.73050781 172.72917969 -29.73050781 172.72917969 -31.3046875 172.0703125 C-34.56512588 171.18110203 -36.14593739 171.14538514 -39.3125 172.25 C-41.2917785 173.5332557 -41.2917785 173.5332557 -43.0625 175.25 C-43.74699219 175.87003906 -44.43148437 176.49007812 -45.13671875 177.12890625 C-46.6611456 178.61501717 -48.13997064 180.14868154 -49.58203125 181.71484375 C-55.40642446 187.99566301 -55.40642446 187.99566301 -59.875 189.25 C-64.91754793 187.78307697 -67.6643005 184.92970382 -71.3125 181.25 C-72.28405825 180.30095798 -73.25678248 179.35310861 -74.23046875 178.40625 C-83.06357241 169.74542318 -83.06357241 169.74542318 -83.8359375 165.10546875 C-83.0749631 159.50038122 -80.01162492 157.24631186 -75.9375 153.5625 C-74.5504736 152.27143945 -73.16749455 150.97601379 -71.7890625 149.67578125 C-71.17111816 149.11286377 -70.55317383 148.54994629 -69.91650391 147.9699707 C-68.21455067 146.14496909 -67.23130923 144.56468687 -66.3125 142.25 C-66.68315904 138.39891538 -68.07288225 135.08479818 -69.625 131.5625 C-70.03363281 130.60988281 -70.44226563 129.65726563 -70.86328125 128.67578125 C-72.52652859 125.89174729 -73.34285154 125.39765113 -76.3125 124.25 C-78.85613498 123.95031704 -78.85613498 123.95031704 -81.59375 123.9765625 C-82.60050781 123.9559375 -83.60726562 123.9353125 -84.64453125 123.9140625 C-86.75642855 123.88802184 -88.8684366 123.86979193 -90.98046875 123.859375 C-91.98722656 123.83617187 -92.99398437 123.81296875 -94.03125 123.7890625 C-94.94841797 123.78084473 -95.86558594 123.77262695 -96.81054688 123.76416016 C-100.04950636 123.0985426 -101.23234911 121.76107279 -103.3125 119.25 C-105.41205726 115.05088549 -104.54186921 109.55106096 -104.5625 104.9375 C-104.583125 103.79603516 -104.60375 102.65457031 -104.625 101.47851562 C-104.63015625 100.37572266 -104.6353125 99.27292969 -104.640625 98.13671875 C-104.65464355 96.62404419 -104.65464355 96.62404419 -104.66894531 95.08081055 C-104.25404662 91.78577607 -103.26141204 89.91566803 -101.3125 87.25 C-98.81994139 86.00372069 -97.04854903 86.0921914 -94.26171875 86.0390625 C-93.25302734 86.01070313 -92.24433594 85.98234375 -91.20507812 85.953125 C-89.08024817 85.90133146 -86.955223 85.8569755 -84.83007812 85.8203125 C-83.81751953 85.789375 -82.80496094 85.7584375 -81.76171875 85.7265625 C-80.83705811 85.70674316 -79.91239746 85.68692383 -78.9597168 85.66650391 C-75.79350204 85.16834266 -73.89527047 84.12563977 -71.3125 82.25 C-69.60718666 79.51555202 -69.60718666 79.51555202 -68.4375 76.375 C-68.00695312 75.34632812 -67.57640625 74.31765625 -67.1328125 73.2578125 C-66.24360203 69.99737412 -66.20788514 68.41656261 -67.3125 65.25 C-68.5957557 63.2707215 -68.5957557 63.2707215 -70.3125 61.5 C-70.93253906 60.81550781 -71.55257812 60.13101563 -72.19140625 59.42578125 C-73.67751717 57.9013544 -75.21118154 56.42252936 -76.77734375 54.98046875 C-83.05816301 49.15607554 -83.05816301 49.15607554 -84.3125 44.6875 C-82.84557697 39.64495207 -79.99220382 36.8981995 -76.3125 33.25 C-75.36345798 32.27844175 -74.41560861 31.30571752 -73.46875 30.33203125 C-64.80792318 21.49892759 -64.80792318 21.49892759 -60.16796875 20.7265625 C-54.56288122 21.4875369 -52.30881186 24.55087508 -48.625 28.625 C-47.33393945 30.0120264 -46.03851379 31.39500545 -44.73828125 32.7734375 C-44.17536377 33.39138184 -43.61244629 34.00932617 -43.0324707 34.64599609 C-41.20667577 36.34868917 -39.62967436 37.33387386 -37.3125 38.25 C-33.7673065 37.86242258 -30.52064038 36.74355696 -27.1875 35.5 C-26.33929688 35.19578125 -25.49109375 34.8915625 -24.6171875 34.578125 C-21.47402515 32.7668111 -20.66480728 31.65885126 -19.3125 28.25 C-18.80705275 23.35730887 -18.87608961 18.447216 -18.87304688 13.53320312 C-18.85435547 12.53095703 -18.83566406 11.52871094 -18.81640625 10.49609375 C-18.81455322 9.58529053 -18.8127002 8.6744873 -18.81079102 7.73608398 C-18.16226213 4.50043007 -16.81733971 3.32543862 -14.3125 1.25 C-10.11338549 -0.84955726 -4.61356096 0.02063079 0 0 Z M-27.1484375 79.640625 C-34.99272547 89.09908053 -37.42748601 99.23438608 -36.3125 111.25 C-34.10221331 120.6086773 -29.73326405 128.09565377 -22.3125 134.25 C-12.1197623 140.52442396 -2.23146602 143.27178634 9.703125 140.56640625 C15.86151134 138.49354158 20.88023526 135.61253981 25.6875 131.25 C26.50347656 130.51523438 26.50347656 130.51523438 27.3359375 129.765625 C33.8031913 123.13422771 36.91460325 113.8795199 37.3125 104.75 C36.80806095 94.02743665 32.74774885 85.08996274 25.296875 77.4140625 C9.22583365 64.08568389 -12.18989956 65.12061098 -27.1484375 79.640625 Z " fill="#78A962" transform="translate(112.3125,7.75)"/>
</svg>
