<?xml version="1.0" encoding="UTF-8"?>
<svg version="1.1" xmlns="http://www.w3.org/2000/svg" width="225" height="225">
<path d="M0 0 C4.81009344 1.16279956 7.94167648 5.14563336 11.29798508 8.57630348 C12.17461713 9.44045561 13.05124918 10.30460773 13.95444584 11.19494629 C16.37985292 13.59397155 18.78608237 16.00968129 21.18582702 18.43421721 C23.77944112 21.04593186 26.39596582 23.634518 29.00960922 26.22616005 C34.12437676 31.30534693 39.21727124 36.40593577 44.30266398 41.51451594 C48.43587533 45.66579152 52.57682557 49.80919615 56.72343063 53.94709206 C57.31349866 54.53593422 57.90356668 55.12477638 58.51151556 55.73146224 C59.71024641 56.9276353 60.9089952 58.12379039 62.10776174 59.31992769 C73.34875814 70.53810952 84.56509921 81.78068548 95.7731756 93.03174448 C105.3916464 102.68595765 115.03089972 112.31900284 124.68568039 121.93689919 C135.89636923 133.10477968 147.09397031 144.28551898 158.27098846 155.48710537 C159.46277083 156.68143614 160.65456993 157.8757502 161.84638596 159.07004738 C162.43278154 159.65767717 163.01917713 160.24530696 163.62334228 160.85074371 C167.75735102 164.99166103 171.90057283 169.1232201 176.04743576 173.25126076 C181.10061257 178.28200475 186.13929539 183.32674454 191.15991634 188.38998729 C193.72215187 190.97325439 196.29037924 193.54969892 198.8763485 196.10922623 C201.67854329 198.8831992 204.44910318 201.68744561 207.21717453 204.49549294 C208.04048956 205.30096219 208.86380459 206.10643145 209.71206856 206.93630886 C215.7242199 213.11863704 215.7242199 213.11863704 215.84542465 217.95310402 C215.24964523 221.54383278 215.24964523 221.54383278 213.74964523 224.04383278 C210.97951782 225.70590923 208.8066525 226.2521275 205.57191086 226.19031715 C200.33863015 224.73344927 196.82673545 219.90665063 193.24964523 216.04383278 C192.37952805 215.13762184 191.50941086 214.2314109 190.61292648 213.29773903 C188.47266301 211.06339804 186.35327698 208.8126047 184.24964523 206.54383278 C183.54114426 206.94505348 182.83264328 207.34627419 182.10267258 207.75965309 C170.34814752 214.31265693 158.69919856 218.1582125 145.24964523 219.54383278 C144.07272865 219.66656311 144.07272865 219.66656311 142.87203598 219.79177284 C134.08454404 220.62186228 125.33932569 220.70756016 116.52308273 220.71180153 C114.92425636 220.71502645 113.32543026 220.71839137 111.72660446 220.72188759 C108.3900395 220.72783753 105.05350027 220.72973185 101.71693039 220.72913551 C97.49504031 220.72903429 93.27331988 220.7426643 89.0514698 220.75990772 C85.75151984 220.7711683 82.45160903 220.77305045 79.15164185 220.77252579 C77.59792244 220.77368574 76.04420133 220.77799183 74.4905014 220.78585815 C53.18847059 220.88360034 29.47262541 220.18891685 12.71448898 205.28992653 C-5.54885464 186.29482957 -5.07941965 158.80716931 -5.01597977 134.10633278 C-5.01733318 132.20602303 -5.01927926 130.30571363 -5.02177811 128.40540504 C-5.02469767 124.45574529 -5.02053534 120.50617705 -5.01109695 116.55652809 C-4.99970445 111.5513524 -5.00628115 106.54639139 -5.01824188 101.54122353 C-5.02554707 97.62702826 -5.02313334 93.712882 -5.0179863 89.79868507 C-5.01667359 87.95552481 -5.01821158 86.11235975 -5.0229454 84.26920509 C-5.09777256 46.97018378 -5.09777256 46.97018378 1.99964523 31.54383278 C3.39046884 28.80230216 3.39046884 28.80230216 3.17152023 26.70789528 C1.78012767 23.44166018 -0.71026505 21.31176365 -3.25035477 18.91883278 C-9.63317926 12.80932822 -9.63317926 12.80932822 -10.06285477 8.16883278 C-9.75035477 4.54383278 -9.75035477 4.54383278 -8.25035477 2.10633278 C-5.44257865 0.35147271 -3.30440822 -0.08545959 0 0 Z M16.24964523 39.54383278 C15.76519759 41.54256017 15.28736863 43.54289215 14.81214523 45.54383278 C14.5453093 46.65758278 14.27847336 47.77133278 14.00355148 48.91883278 C12.48997755 56.19653543 12.00501672 63.4465113 11.69495773 70.85633278 C11.65291214 71.85052223 11.61086655 72.84471169 11.56754684 73.86902809 C11.13977004 84.9403427 11.09888656 96.00850409 11.11927414 107.08680153 C11.12464126 110.54127321 11.1192838 113.99561495 11.11292648 117.45008278 C11.10900207 128.35674076 11.22718254 139.24712432 11.67542648 150.14539528 C11.71155045 151.05974342 11.74767441 151.97409157 11.78489304 152.91614723 C12.31397791 164.30157818 13.37814299 176.53271025 19.24964523 186.54383278 C19.60800461 187.1754734 19.96636398 187.80711403 20.33558273 188.45789528 C23.24260763 193.04280032 27.12203783 196.58657508 32.24964523 198.54383278 C34.79780757 198.24268924 35.9599018 197.84103662 37.76673508 195.98768044 C38.2432048 195.31785133 38.71967453 194.64802223 39.21058273 193.95789528 C39.75730637 193.20145729 40.30403 192.4450193 40.86732101 191.66565895 C41.44723801 190.84170631 42.027155 190.01775368 42.62464523 189.16883278 C43.87976658 187.42788465 45.13497744 185.68700105 46.39027023 183.94617653 C47.03028976 183.05011696 47.6703093 182.15405739 48.32972336 181.2308445 C56.75550793 169.43860327 65.27831608 157.86613662 74.92396164 147.03699684 C76.15346813 145.65216043 77.36449738 144.25097903 78.57386398 142.84852028 C83.58257167 137.11143679 88.98436608 131.9657053 94.64808273 126.89148903 C96.57746061 125.15041379 98.42515453 123.38997224 100.24964523 121.54383278 C89.59878318 110.84630359 78.94223739 100.15446208 68.27885246 89.46941566 C63.32808048 84.50831972 58.37920318 79.54536074 53.43470383 74.57801247 C48.66710631 69.78839398 43.89434504 65.00397897 39.11832428 60.22275734 C37.29284055 58.39356507 35.46912415 56.56260738 33.64717102 54.72989845 C31.1040523 52.17235913 28.55484281 49.62104846 26.00403976 47.07117653 C25.24446976 46.30441597 24.48489975 45.53765541 23.70231247 44.74765968 C23.00960251 44.05769905 22.31689255 43.36773842 21.60319138 42.65686989 C21.00033876 42.05217369 20.39748615 41.44747749 19.77636528 40.82445717 C18.32637785 39.32961401 18.32637785 39.32961401 16.24964523 39.54383278 Z M105.49964523 138.79383278 C102.57980201 141.52045108 99.68237487 144.1995305 96.55433273 146.68836403 C94.49033496 148.35005715 92.83571083 149.97015882 91.12464523 151.98133278 C90.52523117 152.6851609 89.92581711 153.38898903 89.30823898 154.11414528 C88.62890305 154.91594215 87.94956711 155.71773903 87.24964523 156.54383278 C86.4568718 157.44875465 85.66409836 158.35367653 84.84730148 159.28602028 C77.32972798 167.92221323 70.59679853 177.07329542 63.87269211 186.33338356 C62.39235872 188.34946938 60.88671274 190.34085423 59.35902023 192.32117653 C58.93379074 192.87410378 58.50856125 193.42703102 58.07044601 193.99671364 C56.96047338 195.43278889 55.84362311 196.8635411 54.72620773 198.29383278 C52.97531701 200.51331785 52.97531701 200.51331785 53.24964523 203.54383278 C66.82841573 204.30969393 80.36094927 204.70453319 93.96131516 204.67420387 C96.81464045 204.66882808 99.6678089 204.67420268 102.52112961 204.68055153 C125.96896473 204.76928833 125.96896473 204.76928833 149.24964523 202.29383278 C150.40653854 202.10857033 150.40653854 202.10857033 151.58680344 201.9195652 C158.26842784 200.74562493 164.17870415 198.60959744 170.24964523 195.54383278 C170.24964523 191.08864592 169.56959961 190.39766205 166.57999802 187.3653965 C166.03922623 186.83743477 165.49845444 186.30947304 164.94129562 185.76551247 C164.37719482 185.19922127 163.81309402 184.63293007 163.23189926 184.04947853 C161.36317951 182.17844546 159.48056175 180.32209549 157.59730148 178.46570778 C156.29852383 177.17185187 155.00055513 175.87718346 153.70336533 174.58173561 C150.98298622 171.86900066 148.2562722 169.16286367 145.52430344 166.46180153 C142.01377803 162.99091027 138.51416366 159.50927908 135.01855946 156.02336693 C131.69417004 152.70892722 128.36482194 149.3994885 125.03480148 146.09070778 C124.3952408 145.45454285 123.75568012 144.81837791 123.09673882 144.16293526 C121.29633637 142.37404921 119.49249272 140.58871582 117.68738937 138.80457497 C117.14864182 138.26851631 116.60989426 137.73245766 116.05482101 137.1801548 C110.87142895 132.07254753 110.34536267 134.25962575 105.49964523 138.79383278 Z " fill="#CACDD8" transform="translate(9.750354766845703,-0.5438327789306641)"/>
<path d="M0 0 C1.83687389 -0.00135325 3.67374743 -0.00329921 5.51062012 -0.00579834 C9.3292182 -0.00871863 13.14772166 -0.00455315 16.96630859 0.00488281 C21.80682667 0.01627538 26.64712277 0.00969908 31.48763275 -0.00226212 C35.27139899 -0.00956529 39.0551145 -0.00715447 42.83888245 -0.00200653 C44.62146533 -0.00069327 46.40405316 -0.00223387 48.18663025 -0.00696564 C71.1155629 -0.05450595 96.28877499 0.67944125 114.19140625 17.0078125 C131.06598213 34.88373684 130.43969523 61.4305639 130.44921875 84.3984375 C130.45244157 86.24388656 130.45580637 88.08933538 130.45930481 89.93478394 C130.46526171 93.78921093 130.46714833 97.64361561 130.46655273 101.49804688 C130.46645144 106.38580311 130.4800855 111.27341302 130.49732494 116.16113472 C130.50856094 119.97063832 130.5104684 123.78010786 130.50994301 127.58962631 C130.51110644 129.38896055 130.51543353 131.18829616 130.52327538 132.98761368 C130.55920179 142.08336198 130.39304161 151.13491471 129.5793457 160.19873047 C129.52690547 160.93867815 129.47446524 161.67862583 129.42043591 162.44099617 C129.01840754 166.25152379 128.32628293 168.20893418 125.92277527 171.23464966 C123.28125 173.265625 123.28125 173.265625 119.71875 173.828125 C116.28125 173.265625 116.28125 173.265625 113.90625 171.578125 C111.30622402 167.87808803 111.12096516 165.43183539 111.734375 160.96875 C112.55219382 154.76323996 112.64246515 148.51535463 112.84375 142.265625 C112.90852539 140.38810547 112.90852539 140.38810547 112.97460938 138.47265625 C113.08003017 135.40373977 113.18215342 132.33475111 113.28125 129.265625 C107.64417206 125.72168742 102.2835703 122.59143901 95.96875 120.453125 C94.81761719 120.05480469 93.66648438 119.65648438 92.48046875 119.24609375 C86.11238704 117.29445943 80.13698135 117.00954639 73.51953125 116.92382812 C68.57410672 116.7356394 65.8399076 116.01590262 62.28125 112.265625 C61.05485165 108.66307985 60.95530486 107.02044532 62.46875 103.515625 C64.99167835 100.38371394 66.98519845 99.40963073 70.98828125 98.96484375 C85.7367414 98.90918918 98.83692255 102.55264107 112.28125 108.265625 C112.61125 108.595625 112.94125 108.925625 113.28125 109.265625 C116.04043357 66.45994469 116.04043357 66.45994469 101.28125 28.265625 C82.18120391 12.80563052 48.44620564 17.09162923 25.55834961 17.13525391 C22.2178902 17.14062638 18.87756483 17.13526111 15.53710938 17.12890625 C-9.07327137 17.07869018 -9.07327137 17.07869018 -33.5625 19.27734375 C-36.36995419 19.26208585 -38.23201875 18.5462916 -40.71875 17.265625 C-43.21906654 13.51515018 -43.25478554 11.70706234 -42.71875 7.265625 C-40.01128422 3.72379171 -38.35059545 2.42076055 -33.98620605 1.34918213 C-32.53948283 1.19717077 -31.08974616 1.07219105 -29.63867188 0.96972656 C-28.85008537 0.89904087 -28.06149887 0.82835518 -27.24901581 0.7555275 C-18.17649584 0.01343561 -9.09674236 -0.0241469 0 0 Z " fill="#C9CCD8" transform="translate(89.71875,4.734375)"/>
</svg>
