<?xml version="1.0" encoding="UTF-8"?>
<svg version="1.1" xmlns="http://www.w3.org/2000/svg" width="300" height="276">
<path d="M0 0 C1.02996094 -0.00128906 2.05992187 -0.00257813 3.12109375 -0.00390625 C4.74724609 0.00189453 4.74724609 0.00189453 6.40625 0.0078125 C7.49035156 0.00394531 8.57445312 0.00007812 9.69140625 -0.00390625 C10.72136719 -0.00261719 11.75132812 -0.00132812 12.8125 0 C14.24045898 0.00169189 14.24045898 0.00169189 15.69726562 0.00341797 C17.90625 0.1328125 17.90625 0.1328125 18.90625 1.1328125 C19.02764337 2.96216922 19.08591109 4.79579301 19.1171875 6.62890625 C19.14554688 7.74458984 19.17390625 8.86027344 19.203125 10.00976562 C19.25511918 12.37940042 19.29941694 14.74921685 19.3359375 17.11914062 C19.366875 18.23611328 19.3978125 19.35308594 19.4296875 20.50390625 C19.44950684 21.53443115 19.46932617 22.56495605 19.48974609 23.62670898 C19.62719238 24.45372314 19.76463867 25.2807373 19.90625 26.1328125 C22.96939839 28.17491143 23.5836793 28.38297503 27.03125 28.36328125 C27.82015625 28.36134766 28.6090625 28.35941406 29.421875 28.35742188 C30.24171875 28.34517578 31.0615625 28.33292969 31.90625 28.3203125 C32.72609375 28.31966797 33.5459375 28.31902344 34.390625 28.31835938 C37.88569449 28.29266033 40.55884849 28.248613 43.90625 27.1328125 C45.21986698 24.50557854 45.11878909 22.40670689 45.22265625 19.46875 C45.28549805 17.78652344 45.28549805 17.78652344 45.34960938 16.0703125 C45.38892578 14.8946875 45.42824219 13.7190625 45.46875 12.5078125 C45.53352539 10.73277344 45.53352539 10.73277344 45.59960938 8.921875 C45.70592338 5.99233343 45.80661217 3.06258873 45.90625 0.1328125 C53.82625 0.1328125 61.74625 0.1328125 69.90625 0.1328125 C69.90625 28.5128125 69.90625 56.8928125 69.90625 86.1328125 C44.82625 86.1328125 19.74625 86.1328125 -6.09375 86.1328125 C-6.13385881 64.95981771 -6.13385881 64.95981771 -6.14257812 55.96679688 C-6.14856671 49.81924583 -6.1556674 43.67170961 -6.16918945 37.52416992 C-6.18001787 32.5704984 -6.18602674 27.61684276 -6.18862724 22.66316032 C-6.19048157 20.76883634 -6.19410234 18.87451326 -6.19948006 16.980196 C-6.20668989 14.33646864 -6.20774097 11.69280779 -6.20727539 9.04907227 C-6.21087067 8.25785477 -6.21446594 7.46663727 -6.21817017 6.65144348 C-6.2063498 0.48978621 -6.10688654 0.00723565 0 0 Z M1.90625 58.1328125 C1.24625 59.4528125 0.58625 60.7728125 -0.09375 62.1328125 C1.33634002 64.32016602 1.33634002 64.32016602 3.90625 66.1328125 C8.74317755 66.89607079 12.62730157 66.5640332 16.90625 64.1328125 C16.948971 62.46669345 16.94688832 60.79898365 16.90625 59.1328125 C15.76923403 57.76748701 15.76923403 57.76748701 12.74609375 58.03515625 C11.45832031 58.04675781 10.17054688 58.05835938 8.84375 58.0703125 C7.55339844 58.07933594 6.26304687 58.08835938 4.93359375 58.09765625 C3.93457031 58.10925781 2.93554688 58.12085938 1.90625 58.1328125 Z M1.90625 72.1328125 C1.24625 73.4528125 0.58625 74.7728125 -0.09375 76.1328125 C0.99668746 78.23214895 0.99668746 78.23214895 2.90625 80.1328125 C5.80240329 80.69224256 5.80240329 80.69224256 8.96875 80.5078125 C10.03222656 80.49492187 11.09570312 80.48203125 12.19140625 80.46875 C15.05169882 80.39730954 15.05169882 80.39730954 16.90625 78.1328125 C17.1563273 75.59091248 17.1563273 75.59091248 16.90625 73.1328125 C15.76923403 71.76748701 15.76923403 71.76748701 12.74609375 72.03515625 C11.45832031 72.04675781 10.17054688 72.05835938 8.84375 72.0703125 C7.55339844 72.07933594 6.26304687 72.08835937 4.93359375 72.09765625 C3.93457031 72.10925781 2.93554688 72.12085938 1.90625 72.1328125 Z " fill="#77A762" transform="translate(202.09375,183.8671875)"/>
<path d="M0 0 C7.92 0 15.84 0 24 0 C24.03738281 1.76988281 24.07476562 3.53976563 24.11328125 5.36328125 C24.178929 7.67970912 24.24537674 9.99611442 24.3125 12.3125 C24.33505859 13.47974609 24.35761719 14.64699219 24.38085938 15.84960938 C24.4340332 17.52700195 24.4340332 17.52700195 24.48828125 19.23828125 C24.51446533 20.26993408 24.54064941 21.30158691 24.56762695 22.36450195 C24.80831627 24.99941675 24.80831627 24.99941675 26.26049805 26.83740234 C28.43972899 28.29389326 29.73396736 28.37350161 32.34375 28.36328125 C33.17777344 28.36263672 34.01179688 28.36199219 34.87109375 28.36132812 C35.73863281 28.34521484 36.60617188 28.32910156 37.5 28.3125 C38.36753906 28.31572266 39.23507813 28.31894531 40.12890625 28.32226562 C45.36719159 28.35567777 45.36719159 28.35567777 50 26 C50.510605 23.28995497 50.510605 23.28995497 50.51171875 20.1171875 C50.54716797 18.95058594 50.58261719 17.78398437 50.61914062 16.58203125 C50.64169922 15.35871094 50.66425781 14.13539063 50.6875 12.875 C50.72166016 11.64394531 50.75582031 10.41289062 50.79101562 9.14453125 C50.87371564 6.0964449 50.94279427 3.04865429 51 0 C54.97915159 -0.02886984 58.95827653 -0.04675406 62.9375 -0.0625 C64.07380859 -0.07087891 65.21011719 -0.07925781 66.38085938 -0.08789062 C67.46044922 -0.09111328 68.54003906 -0.09433594 69.65234375 -0.09765625 C71.15269165 -0.10551147 71.15269165 -0.10551147 72.68334961 -0.11352539 C75 0 75 0 76 1 C76.10041457 3.61150288 76.13617057 6.19658365 76.12939453 8.80859375 C76.13202301 10.03535324 76.13202301 10.03535324 76.13470459 11.28689575 C76.13912385 14.0037851 76.13618486 16.72060993 76.1328125 19.4375 C76.13348552 21.31697604 76.13445553 23.19645199 76.13571167 25.07592773 C76.13718874 29.02035346 76.13503379 32.96475658 76.13037109 36.90917969 C76.1246738 41.97712503 76.12795276 47.04501742 76.13394356 52.11296082 C76.13754892 55.99556887 76.1364107 59.87816428 76.13381577 63.76077271 C76.13314643 65.62997443 76.13397516 67.49917728 76.13629532 69.36837769 C76.13882143 71.97608504 76.13498184 74.58370541 76.12939453 77.19140625 C76.13141876 77.97170197 76.13344299 78.75199768 76.13552856 79.55593872 C76.11426253 84.88573747 76.11426253 84.88573747 75 86 C72.65741937 86.09492895 70.34457881 86.12558483 68.00170898 86.11352539 C67.25817452 86.11364593 66.51464006 86.11376646 65.74857426 86.11389065 C63.33105079 86.11314159 60.9136035 86.10551371 58.49609375 86.09765625 C57.00785357 86.09618681 55.51961287 86.09516611 54.03137207 86.09460449 C48.50007352 86.08935187 42.96878602 86.07539078 37.4375 86.0625 C25.083125 86.041875 12.72875 86.02125 0 86 C0 57.62 0 29.24 0 0 Z M6 59 C5.95936168 60.66617115 5.957279 62.33388095 6 64 C8.95502601 65.69242399 11.09995022 66.27328801 14.5 66.25 C15.2528125 66.25515625 16.005625 66.2603125 16.78125 66.265625 C19.2296721 65.97250404 20.87304054 65.21816769 23 64 C22.62095792 60.70924004 22.62095792 60.70924004 21 58 C18.66839945 57.90090698 16.33370058 57.87029496 14 57.875 C12.72125 57.87242187 11.4425 57.86984375 10.125 57.8671875 C7.13312756 57.64139107 7.13312756 57.64139107 6 59 Z M6 73 C5.83312552 75.41645782 5.83312552 75.41645782 6 78 C7.85231097 80.27557135 7.85231097 80.27557135 10.71484375 80.265625 C11.77832031 80.26046875 12.84179688 80.2553125 13.9375 80.25 C15.52884766 80.25773437 15.52884766 80.25773437 17.15234375 80.265625 C20.20171473 80.20859765 20.20171473 80.20859765 23 78 C22.62095792 74.70924004 22.62095792 74.70924004 21 72 C18.85605481 71.9008243 16.70873268 71.8702985 14.5625 71.875 C13.38816406 71.87242187 12.21382812 71.86984375 11.00390625 71.8671875 C8.0759191 71.79234454 8.0759191 71.79234454 6 73 Z " fill="#77A762" transform="translate(28,184)"/>
<path d="M0 0 C7.92 0 15.84 0 24 0 C24.4375 11.75 24.4375 11.75 24.56811523 15.43652344 C24.6252771 16.88333496 24.6252771 16.88333496 24.68359375 18.359375 C24.72025146 19.34389648 24.75690918 20.32841797 24.79467773 21.34277344 C24.97598742 23.68923551 25.34331819 25.74718412 26 28 C29.41637953 28.11632513 32.83224897 28.18728897 36.25 28.25 C37.21808594 28.28351563 38.18617188 28.31703125 39.18359375 28.3515625 C40.11816406 28.36445313 41.05273438 28.37734375 42.015625 28.390625 C42.87446289 28.41157227 43.73330078 28.43251953 44.61816406 28.45410156 C47.89834101 27.82872957 49.02637098 26.66127352 51 24 C51.6363651 21.30762013 51.6363651 21.30762013 51.609375 18.359375 C51.63999023 17.39483398 51.67060547 16.43029297 51.70214844 15.43652344 C51.71793945 14.2199707 51.73373047 13.00341797 51.75 11.75 C51.87375 5.93375 51.87375 5.93375 52 0 C59.92 0 67.84 0 76 0 C76 28.38 76 56.76 76 86 C50.92 86 25.84 86 0 86 C0 57.62 0 29.24 0 0 Z M6 60 C6.16507646 62.57540213 6.16507646 62.57540213 7 65 C9.58753156 66.29376578 11.54958985 66.16832397 14.4375 66.1875 C15.40558594 66.20167969 16.37367188 66.21585938 17.37109375 66.23046875 C20.23266727 66.19149451 20.23266727 66.19149451 23 64 C22.62095792 60.70924004 22.62095792 60.70924004 21 58 C18.85692104 57.87462259 16.70921114 57.82425636 14.5625 57.8125 C13.38816406 57.79832031 12.21382812 57.78414062 11.00390625 57.76953125 C7.88503098 57.68100744 7.88503098 57.68100744 6 60 Z M6 74 C6.28983269 77.30683466 6.28983269 77.30683466 8 80 C10.14307896 80.12537741 12.29078886 80.17574364 14.4375 80.1875 C15.61183594 80.20167969 16.78617188 80.21585938 17.99609375 80.23046875 C21.11496902 80.31899256 21.11496902 80.31899256 23 78 C22.71016731 74.69316534 22.71016731 74.69316534 21 72 C18.85692104 71.87462259 16.70921114 71.82425636 14.5625 71.8125 C13.38816406 71.79832031 12.21382812 71.78414063 11.00390625 71.76953125 C7.88503098 71.68100744 7.88503098 71.68100744 6 74 Z " fill="#77A762" transform="translate(112,184)"/>
<path d="M0 0 C7.92 0 15.84 0 24 0 C24.4375 11.875 24.4375 11.875 24.56811523 15.61669922 C24.6252771 17.07100342 24.6252771 17.07100342 24.68359375 18.5546875 C24.72025146 19.54968262 24.75690918 20.54467773 24.79467773 21.56982422 C24.84959532 24.00779501 24.84959532 24.00779501 26 26 C28.94131891 26.98043964 30.82501665 27.11621202 33.88671875 27.09765625 C35.154552 27.09390991 35.154552 27.09390991 36.44799805 27.09008789 C37.51703369 27.08098389 38.58606934 27.07187988 39.6875 27.0625 C43.090625 27.041875 46.49375 27.02125 50 27 C50.33 18.09 50.66 9.18 51 0 C59.25 0 67.5 0 76 0 C76 28.05 76 56.1 76 85 C50.92 85 25.84 85 0 85 C0 56.95 0 28.9 0 0 Z M6 59 C6.28983269 62.30683466 6.28983269 62.30683466 8 65 C10.14307896 65.12537741 12.29078886 65.17574364 14.4375 65.1875 C15.61183594 65.20167969 16.78617188 65.21585938 17.99609375 65.23046875 C21.11496902 65.31899256 21.11496902 65.31899256 23 63 C22.71016731 59.69316534 22.71016731 59.69316534 21 57 C18.85692104 56.87462259 16.70921114 56.82425636 14.5625 56.8125 C13.38816406 56.79832031 12.21382812 56.78414062 11.00390625 56.76953125 C7.88503098 56.68100744 7.88503098 56.68100744 6 59 Z M6 73 C6.28983269 76.30683466 6.28983269 76.30683466 8 79 C10.14307896 79.12537741 12.29078886 79.17574364 14.4375 79.1875 C15.61183594 79.20167969 16.78617188 79.21585938 17.99609375 79.23046875 C21.11496902 79.31899256 21.11496902 79.31899256 23 77 C22.71016731 73.69316534 22.71016731 73.69316534 21 71 C18.85692104 70.87462259 16.70921114 70.82425636 14.5625 70.8125 C13.38816406 70.79832031 12.21382812 70.78414063 11.00390625 70.76953125 C7.88503098 70.68100744 7.88503098 70.68100744 6 73 Z " fill="#77A862" transform="translate(70,91)"/>
<path d="M0 0 C8.25 0 16.5 0 25 0 C25.33 8.58 25.66 17.16 26 26 C28.72051286 26.90683762 30.32733006 27.12842547 33.125 27.1328125 C34.30835938 27.13474609 34.30835938 27.13474609 35.515625 27.13671875 C36.33546875 27.13285156 37.1553125 27.12898438 38 27.125 C39.22976562 27.13080078 39.22976562 27.13080078 40.484375 27.13671875 C41.27328125 27.13542969 42.0621875 27.13414063 42.875 27.1328125 C43.59429687 27.13168457 44.31359375 27.13055664 45.0546875 27.12939453 C47.21762361 27.06777378 47.21762361 27.06777378 50 26 C51.28605661 23.42788678 51.21043941 21.43093034 51.31640625 18.5546875 C51.35451416 17.58515137 51.39262207 16.61561523 51.43188477 15.61669922 C51.47498779 14.38193848 51.51809082 13.14717773 51.5625 11.875 C51.706875 7.95625 51.85125 4.0375 52 0 C59.92 0 67.84 0 76 0 C76 28.05 76 56.1 76 85 C50.92 85 25.84 85 0 85 C0 56.95 0 28.9 0 0 Z M6 59 C6.28983269 62.30683466 6.28983269 62.30683466 8 65 C10.14394519 65.0991757 12.29126732 65.1297015 14.4375 65.125 C15.61183594 65.12757813 16.78617188 65.13015625 17.99609375 65.1328125 C20.9240809 65.20765546 20.9240809 65.20765546 23 64 C23.16687448 61.58354218 23.16687448 61.58354218 23 59 C21.11826065 56.69074227 21.11826065 56.69074227 18.03125 56.734375 C16.8659375 56.73953125 15.700625 56.7446875 14.5 56.75 C13.3346875 56.74484375 12.169375 56.7396875 10.96875 56.734375 C7.88173935 56.69074227 7.88173935 56.69074227 6 59 Z M6 73 C6.28983269 76.30683466 6.28983269 76.30683466 8 79 C10.14394519 79.0991757 12.29126732 79.1297015 14.4375 79.125 C15.61183594 79.12757813 16.78617188 79.13015625 17.99609375 79.1328125 C20.9240809 79.20765546 20.9240809 79.20765546 23 78 C23.16687448 75.58354218 23.16687448 75.58354218 23 73 C21.11826065 70.69074227 21.11826065 70.69074227 18.03125 70.734375 C16.8659375 70.73953125 15.700625 70.7446875 14.5 70.75 C13.3346875 70.74484375 12.169375 70.7396875 10.96875 70.734375 C7.88173935 70.69074227 7.88173935 70.69074227 6 73 Z " fill="#77A863" transform="translate(154,91)"/>
<path d="M0 0 C7.92 0 15.84 0 24 0 C24.22786458 3.54817708 24.45572917 7.09635417 24.68359375 10.64453125 C24.87184547 13.99181893 24.87184547 13.99181893 26 17 C28.72051286 17.90683762 30.32733006 18.12842547 33.125 18.1328125 C34.30835938 18.13474609 34.30835938 18.13474609 35.515625 18.13671875 C36.33546875 18.13285156 37.1553125 18.12898438 38 18.125 C39.22976562 18.13080078 39.22976562 18.13080078 40.484375 18.13671875 C41.27328125 18.13542969 42.0621875 18.13414063 42.875 18.1328125 C43.59429687 18.13168457 44.31359375 18.13055664 45.0546875 18.12939453 C47.21762361 18.06777378 47.21762361 18.06777378 50 17 C51.52056499 13.95887002 51.3741161 10.71802203 51.5625 7.375 C51.706875 4.94125 51.85125 2.5075 52 0 C59.92 0 67.84 0 76 0 C76 25.08 76 50.16 76 76 C50.92 76 25.84 76 0 76 C0 50.92 0 25.84 0 0 Z M6 50 C6.27034634 52.43717258 6.27034634 52.43717258 7 55 C11.01322046 57.67548031 14.28373655 57.58740465 19 57 C21.5189267 55.68236671 21.5189267 55.68236671 23 54 C22.67 52.35 22.34 50.7 22 49 C19.22947819 48.07649273 17.43311242 47.83670415 14.5625 47.8125 C13.41974609 47.79123047 13.41974609 47.79123047 12.25390625 47.76953125 C9.76652685 48.02387334 8.15191894 48.75982804 6 50 Z M6 64 C6.27034634 66.43717258 6.27034634 66.43717258 7 69 C11.01322046 71.67548031 14.28373655 71.58740465 19 71 C21.5189267 69.68236671 21.5189267 69.68236671 23 68 C22.67 66.35 22.34 64.7 22 63 C19.22947819 62.07649273 17.43311242 61.83670415 14.5625 61.8125 C13.41974609 61.79123047 13.41974609 61.79123047 12.25390625 61.76953125 C9.76652685 62.02387334 8.15191894 62.75982804 6 64 Z " fill="#77A862" transform="translate(112,6)"/>
<path d="M0 0 C7.92 0 15.84 0 24 0 C24 4.62 24 9.24 24 14 C23.67 14 23.34 14 23 14 C23 9.71 23 5.42 23 1 C15.74 1 8.48 1 1 1 C1.33 19.15 1.66 37.3 2 56 C3.32 53.36 4.64 50.72 6 48 C7.73956658 46.26043342 10.1936622 46.62809614 12.5625 46.4375 C13.57441406 46.35371094 14.58632812 46.26992188 15.62890625 46.18359375 C16.80259766 46.09271484 16.80259766 46.09271484 18 46 C18 46.66 18 47.32 18 48 C14.37 48.66 10.74 49.32 7 50 C6.8453125 51.6396875 6.8453125 51.6396875 6.6875 53.3125 C6.02692273 56.85559629 5.7972908 57.93243723 3 60 C3.66 60 4.32 60 5 60 C5.33 59.34 5.66 58.68 6 58 C6 58.99 6 59.98 6 61 C9.96 61 13.92 61 18 61 C18 61.33 18 61.66 18 62 C13.71 62 9.42 62 5 62 C5 64.31 5 66.62 5 69 C4.67 68.34 4.34 67.68 4 67 C1.64644661 70.11785113 1.64644661 70.11785113 1 75 C22.45 75 43.9 75 66 75 C66 75.33 66 75.66 66 76 C44.22 76 22.44 76 0 76 C0 50.92 0 25.84 0 0 Z " fill="#7BA36A" transform="translate(112,6)"/>
<path d="M0 0 C0.8146875 0.00257813 1.629375 0.00515625 2.46875 0.0078125 C3.2834375 0.00523437 4.098125 0.00265625 4.9375 0 C6.96875 0.1328125 6.96875 0.1328125 7.96875 1.1328125 C8.05526611 2.54851373 8.07579904 3.9684075 8.06640625 5.38671875 C8.06318359 6.24072266 8.05996094 7.09472656 8.05664062 7.97460938 C8.04826172 8.87244141 8.03988281 9.77027344 8.03125 10.6953125 C8.02673828 11.59701172 8.02222656 12.49871094 8.01757812 13.42773438 C8.00575244 15.66278839 7.98781638 17.89780852 7.96875 20.1328125 C4.33875 20.1328125 0.70875 20.1328125 -3.03125 20.1328125 C-3.05808697 16.98692306 -3.07800902 13.84125979 -3.09375 10.6953125 C-3.10212891 9.79748047 -3.11050781 8.89964844 -3.11914062 7.97460938 C-3.12236328 7.12060547 -3.12558594 6.26660156 -3.12890625 5.38671875 C-3.13676147 4.20057983 -3.13676147 4.20057983 -3.14477539 2.99047852 C-2.9833702 0.3493343 -2.63416699 0.172234 0 0 Z " fill="#78A564" transform="translate(63.03125,183.8671875)"/>
<path d="M0 0 C0.33 0 0.66 0 1 0 C1 28.05 1 56.1 1 85 C-23.75 85 -48.5 85 -74 85 C-74 84.67 -74 84.34 -74 84 C-68.06 83.67 -62.12 83.34 -56 83 C-55.67 82.34 -55.34 81.68 -55 81 C-59.29 80.67 -63.58 80.34 -68 80 C-68 79.01 -68 78.02 -68 77 C-67.67 77.33 -67.34 77.66 -67 78 C-64.81360547 78.07258946 -62.62499611 78.08373783 -60.4375 78.0625 C-59.23996094 78.05347656 -58.04242188 78.04445313 -56.80859375 78.03515625 C-55.41833984 78.01775391 -55.41833984 78.01775391 -54 78 C-52.99782936 74.41672247 -52.99782936 74.41672247 -54 71 C-53.01 71 -52.02 71 -51 71 C-51 71.66 -51 72.32 -51 73 C-50.34 73 -49.68 73 -49 73 C-49.33 76.3 -49.66 79.6 -50 83 C-25.25 83.495 -25.25 83.495 0 84 C0 56.28 0 28.56 0 0 Z " fill="#789C69" transform="translate(145,91)"/>
<path d="M0 0 C3.3 0 6.6 0 10 0 C10 6.6 10 13.2 10 20 C6.7 20 3.4 20 0 20 C0 13.4 0 6.8 0 0 Z " fill="#76A561" transform="translate(229,184)"/>
<path d="M0 0 C3.3 0 6.6 0 10 0 C10 6.6 10 13.2 10 20 C6.7 20 3.4 20 0 20 C0 13.4 0 6.8 0 0 Z " fill="#77A563" transform="translate(145,184)"/>
<path d="M0 0 C3.3 0 6.6 0 10 0 C10 6.27 10 12.54 10 19 C6.7 19 3.4 19 0 19 C0 12.73 0 6.46 0 0 Z " fill="#79A564" transform="translate(187,91)"/>
<path d="M0 0 C3.3 0 6.6 0 10 0 C10 6.27 10 12.54 10 19 C6.7 19 3.4 19 0 19 C0 12.73 0 6.46 0 0 Z " fill="#77A761" transform="translate(103,91)"/>
<path d="M0 0 C3.3 0 6.6 0 10 0 C10 3.63 10 7.26 10 11 C6.7 11 3.4 11 0 11 C0 7.37 0 3.74 0 0 Z " fill="#77A862" transform="translate(145,6)"/>
<path d="M0 0 C6.93 0 13.86 0 21 0 C21 0.33 21 0.66 21 1 C14.73 1.33 8.46 1.66 2 2 C2.01160156 3.62550781 2.02320313 5.25101563 2.03515625 6.92578125 C2.04453469 9.05468635 2.05363483 11.1835927 2.0625 13.3125 C2.07087891 14.38435547 2.07925781 15.45621094 2.08789062 16.56054688 C2.09272461 18.10258789 2.09272461 18.10258789 2.09765625 19.67578125 C2.10551147 21.0975769 2.10551147 21.0975769 2.11352539 22.5480957 C2 25 2 25 1 28 C-3.23472374 30.44528981 -7.56586904 30.23528812 -12.3125 30.125 C-13.05306641 30.11597656 -13.79363281 30.10695312 -14.55664062 30.09765625 C-16.37123467 30.07424213 -18.18566071 30.03837615 -20 30 C-20 29.67 -20 29.34 -20 29 C-18.96359375 28.97421875 -17.9271875 28.9484375 -16.859375 28.921875 C-15.48954199 28.86558049 -14.11975195 28.80823345 -12.75 28.75 C-12.06808594 28.73582031 -11.38617188 28.72164062 -10.68359375 28.70703125 C-7.45383037 28.55024662 -5.40159915 28.30889489 -2.80859375 26.31445312 C-0.58523916 23.46923154 -0.46677611 21.93847699 -0.390625 18.359375 C-0.34228516 16.75449219 -0.34228516 16.75449219 -0.29296875 15.1171875 C-0.27878906 14.00601563 -0.26460937 12.89484375 -0.25 11.75 C-0.22035156 10.62335938 -0.19070312 9.49671875 -0.16015625 8.3359375 C-0.0895225 5.55767662 -0.04248981 2.7788338 0 0 Z " fill="#729961" transform="translate(164,184)"/>
<path d="M0 0 C1.52179053 2.77502979 1.38693143 4.82295823 1.0625 7.9375 C-0.9375 10.9375 -0.9375 10.9375 -3.1015625 11.44921875 C-4.31972656 11.53623047 -4.31972656 11.53623047 -5.5625 11.625 C-6.37976563 11.69074219 -7.19703125 11.75648438 -8.0390625 11.82421875 C-8.66554687 11.86160156 -9.29203125 11.89898437 -9.9375 11.9375 C-10.2675 12.9275 -10.5975 13.9175 -10.9375 14.9375 C-8.2975 14.9375 -5.6575 14.9375 -2.9375 14.9375 C-2.9375 15.2675 -2.9375 15.5975 -2.9375 15.9375 C-6.8975 15.9375 -10.8575 15.9375 -14.9375 15.9375 C-14.2775 14.2875 -13.6175 12.6375 -12.9375 10.9375 C-13.9275 10.6075 -14.9175 10.2775 -15.9375 9.9375 C-10.9875 9.6075 -6.0375 9.2775 -0.9375 8.9375 C-1.5975 6.9575 -2.2575 4.9775 -2.9375 2.9375 C-6.2375 2.6075 -9.5375 2.2775 -12.9375 1.9375 C-4.32211538 -2.37019231 -4.32211538 -2.37019231 0 0 Z " fill="#7AA16A" transform="translate(177.9375,146.0625)"/>
<path d="M0 0 C3.81248426 -0.02887236 7.6249407 -0.04675492 11.4375 -0.0625 C12.52611328 -0.07087891 13.61472656 -0.07925781 14.73632812 -0.08789062 C15.77080078 -0.09111328 16.80527344 -0.09433594 17.87109375 -0.09765625 C18.82943115 -0.10289307 19.78776855 -0.10812988 20.77514648 -0.11352539 C23 0 23 0 24 1 C24.08737645 2.85369611 24.10698153 4.71067541 24.09765625 6.56640625 C24.09443359 7.69111328 24.09121094 8.81582031 24.08789062 9.97460938 C24.07951172 11.15861328 24.07113281 12.34261719 24.0625 13.5625 C24.05798828 14.75037109 24.05347656 15.93824219 24.04882812 17.16210938 C24.03699675 20.10812226 24.02051287 23.05403681 24 26 C23.67 26 23.34 26 23 26 C22.505 14.615 22.505 14.615 22 3 C19.34081834 2.11360611 17.51935359 1.82010975 14.76953125 1.68359375 C13.56586914 1.62075195 13.56586914 1.62075195 12.33789062 1.55664062 C11.50451172 1.51732422 10.67113281 1.47800781 9.8125 1.4375 C8.96751953 1.39431641 8.12253906 1.35113281 7.25195312 1.30664062 C5.16815567 1.20068482 3.08409897 1.0998498 1 1 C1 1.66 1 2.32 1 3 C0.34 3 -0.32 3 -1 3 C-0.67 2.01 -0.34 1.02 0 0 Z " fill="#739764" transform="translate(197,184)"/>
<path d="M0 0 C1.98 0 3.96 0 6 0 C4.68 0.33 3.36 0.66 2 1 C2.16749756 1.57073242 2.33499512 2.14146484 2.50756836 2.72949219 C3.01544704 5.07122332 3.03219754 6.94359387 2.87890625 9.328125 C2.83056641 10.12734375 2.78222656 10.9265625 2.73242188 11.75 C2.67634766 12.575 2.62027344 13.4 2.5625 14.25 C2.51029297 15.09046875 2.45808594 15.9309375 2.40429688 16.796875 C2.27504311 18.8649352 2.13825726 20.9325222 2 23 C1.34 23.33 0.68 23.66 0 24 C0 16.08 0 8.16 0 0 Z " fill="#769964" transform="translate(121,91)"/>
<path d="M0 0 C0.99 0.33 1.98 0.66 3 1 C2.67 6.61 2.34 12.22 2 18 C2.99 18.33 3.98 18.66 5 19 C5 19.33 5 19.66 5 20 C3.35 20 1.7 20 0 20 C0 13.4 0 6.8 0 0 Z " fill="#80A16F" transform="translate(229,184)"/>
<path d="M0 0 C1.98 0 3.96 0 6 0 C6 6.27 6 12.54 6 19 C2.7 19 -0.6 19 -4 19 C-4 18.01 -4 17.02 -4 16 C-1.36 16 1.28 16 4 16 C4.33 11.05 4.66 6.1 5 1 C3.35 1 1.7 1 0 1 C0 0.67 0 0.34 0 0 Z " fill="#7BA06A" transform="translate(107,91)"/>
<path d="M0 0 C3.3 0 6.6 0 10 0 C10 3.63 10 7.26 10 11 C6.7 11 3.4 11 0 11 C0 10.67 0 10.34 0 10 C2.31 9.34 4.62 8.68 7 8 C7 6.35 7 4.7 7 3 C4.69 2.67 2.38 2.34 0 2 C0 1.34 0 0.68 0 0 Z " fill="#7D9D6E" transform="translate(145,6)"/>
<path d="M0 0 C1.134375 0.020625 2.26875 0.04125 3.4375 0.0625 C3.4375 0.3925 3.4375 0.7225 3.4375 1.0625 C1.4575 1.0625 -0.5225 1.0625 -2.5625 1.0625 C-2.39878906 1.58328125 -2.23507813 2.1040625 -2.06640625 2.640625 C-1.42191341 5.7381875 -1.46838411 8.65091094 -1.5 11.8125 C-1.50902344 12.98296875 -1.51804688 14.1534375 -1.52734375 15.359375 C-1.53894531 16.25140625 -1.55054688 17.1434375 -1.5625 18.0625 C-2.5525 17.7325 -3.5425 17.4025 -4.5625 17.0625 C-4.58934679 14.41659986 -4.60926357 11.77096904 -4.625 9.125 C-4.63337891 8.37025391 -4.64175781 7.61550781 -4.65039062 6.83789062 C-4.65902441 4.91255687 -4.61474333 2.98714419 -4.5625 1.0625 C-3.5625 0.0625 -3.5625 0.0625 0 0 Z " fill="#719A5E" transform="translate(64.5625,183.9375)"/>
<path d="M0 0 C0.66 0 1.32 0 2 0 C0.84826645 2.46800047 -0.04783565 4.04783565 -2 6 C-4.6015625 6.1953125 -4.6015625 6.1953125 -7.625 6.125 C-9.12933594 6.09792969 -9.12933594 6.09792969 -10.6640625 6.0703125 C-11.43492188 6.04710938 -12.20578125 6.02390625 -13 6 C-13 5.67 -13 5.34 -13 5 C-12.22914062 4.97421875 -11.45828125 4.9484375 -10.6640625 4.921875 C-9.66117187 4.86515625 -8.65828125 4.8084375 -7.625 4.75 C-6.62726563 4.70359375 -5.62953125 4.6571875 -4.6015625 4.609375 C-1.8473523 4.27839115 -1.8473523 4.27839115 -0.6484375 1.953125 C-0.43445313 1.30859375 -0.22046875 0.6640625 0 0 Z " fill="#7DA56A" transform="translate(122,114)"/>
<path d="M0 0 C4.95 0.33 9.9 0.66 15 1 C15 1.33 15 1.66 15 2 C14.08476563 2.06058594 13.16953125 2.12117187 12.2265625 2.18359375 C11.03804687 2.26738281 9.84953125 2.35117188 8.625 2.4375 C7.44164063 2.51871094 6.25828125 2.59992188 5.0390625 2.68359375 C2.08481099 2.81084936 2.08481099 2.81084936 0 4 C0 2.68 0 1.36 0 0 Z " fill="#7CA16E" transform="translate(76,160)"/>
<path d="M0 0 C0.66 0.33 1.32 0.66 2 1 C2.625 4.0625 2.625 4.0625 3 7 C1.02 7.99 1.02 7.99 -1 9 C-0.67 7.02 -0.34 5.04 0 3 C-0.99 2.34 -1.98 1.68 -3 1 C-2.01 0.67 -1.02 0.34 0 0 Z " fill="#7E9B70" transform="translate(134,53)"/>
</svg>
