<?xml version="1.0" encoding="UTF-8"?>
<svg version="1.1" xmlns="http://www.w3.org/2000/svg" width="225" height="225">
<path d="M0 0 C0.69272507 0.00150558 1.38545013 0.00301117 2.09916687 0.00456238 C4.42114975 0.01329846 6.7423381 0.04373661 9.06413269 0.07402039 C10.75681374 0.08496454 12.44950386 0.09457544 14.14219952 0.10296154 C18.67325915 0.12908886 23.20396827 0.17345075 27.73484039 0.22159576 C31.98716882 0.26401674 36.23953572 0.2899855 40.49198914 0.31730652 C52.92656727 0.4067782 65.3609441 0.52265094 77.79533386 0.63529968 C105.57720886 0.86217468 133.35908386 1.08904968 161.98283386 1.32279968 C161.98283386 59.40279968 161.98283386 117.48279968 161.98283386 177.32279968 C103.90283386 177.32279968 45.82283386 177.32279968 -14.01716614 177.32279968 C-14.34716614 120.89279968 -14.67716614 64.46279968 -15.01716614 6.32279968 C-14.02716614 5.99279968 -13.03716614 5.66279968 -12.01716614 5.32279968 C-12.01716614 4.66279968 -12.01716614 4.00279968 -12.01716614 3.32279968 C-8.03842817 0.22534444 -4.95554404 -0.04046844 0 0 Z M1.98283386 17.32279968 C1.98283386 51.97279968 1.98283386 86.62279968 1.98283386 122.32279968 C49.50283386 122.32279968 97.02283386 122.32279968 145.98283386 122.32279968 C145.98283386 87.67279968 145.98283386 53.02279968 145.98283386 17.32279968 C98.46283386 17.32279968 50.94283386 17.32279968 1.98283386 17.32279968 Z " fill="#559537" transform="translate(39.01716613769531,22.677200317382813)"/>
<path d="M0 0 C0.66 0 1.32 0 2 0 C5.45666599 8.48832538 8.90678439 16.97925577 12.34873962 25.47355652 C14.24909451 30.15982518 16.16527716 34.83924927 18.08984375 39.515625 C18.99761617 41.73949341 19.90518133 43.96344643 20.8125 46.1875 C21.23837402 47.21222412 21.66424805 48.23694824 22.10302734 49.29272461 C22.68044678 50.71597046 22.68044678 50.71597046 23.26953125 52.16796875 C23.60573486 52.98547607 23.94193848 53.8029834 24.28833008 54.64526367 C25.0630885 57.20874393 25.13103702 59.33696089 25 62 C20.37349581 63.16793844 15.91416359 63.14103853 11.17749023 63.12939453 C10.29870712 63.13114685 9.41992401 63.13289917 8.51451111 63.13470459 C5.61251848 63.13910097 2.71058699 63.1361911 -0.19140625 63.1328125 C-2.21817537 63.1334866 -4.24494441 63.13445751 -6.27171326 63.13571167 C-10.52270272 63.137186 -14.77367118 63.13504413 -19.0246582 63.13037109 C-24.4456403 63.12469945 -29.8665726 63.12793816 -35.28755283 63.13394356 C-39.47684597 63.1375781 -43.66612756 63.13639692 -47.85542107 63.13381577 C-49.85229435 63.13315315 -51.84916871 63.13395139 -53.84604073 63.13629532 C-63.94101502 63.14553766 -73.95353225 63.14252318 -84 62 C-83.45703105 56.16070237 -81.10026364 51.50319966 -78.5625 46.3125 C-78.15451172 45.45849609 -77.74652344 44.60449219 -77.32617188 43.72460938 C-75.68951685 40.32581353 -74.09668918 37.14503377 -72 34 C-67.92452282 34.52106557 -66.13349573 36.58466672 -63.375 39.5 C-60.49722976 42.66693163 -60.49722976 42.66693163 -57 45 C-56.73123047 44.27458008 -56.46246094 43.54916016 -56.18554688 42.80175781 C-54.19877176 38.10648779 -51.28588003 34.00435909 -48.5 29.75 C-47.90574219 28.82703125 -47.31148437 27.9040625 -46.69921875 26.953125 C-46.12816406 26.0765625 -45.55710938 25.2 -44.96875 24.296875 C-44.44732422 23.49604492 -43.92589844 22.69521484 -43.38867188 21.87011719 C-42 20 -42 20 -40 19 C-34.4069024 23.76008307 -29.13122145 28.74595676 -24 34 C-19.94020902 30.36552045 -17.20358434 26.02657683 -14.25 21.5 C-13.7235791 20.70352051 -13.1971582 19.90704102 -12.65478516 19.08642578 C-10.25416601 15.4521653 -7.87202991 11.80646657 -5.5078125 8.1484375 C-4.45207031 6.52808594 -4.45207031 6.52808594 -3.375 4.875 C-2.76398438 3.92367187 -2.15296875 2.97234375 -1.5234375 1.9921875 C-0.76933594 1.00605469 -0.76933594 1.00605469 0 0 Z " fill="#549637" transform="translate(143,69)"/>
<path d="M0 0 C3.919716 0.03919716 4.96946342 0.17044207 8.25 2.5625 C10.91666322 6.31249515 12.2865298 8.65809934 12.1875 13.3125 C10.94939974 17.35696086 9.16497613 19.31782991 6.25 22.375 C3.051457 23.9742715 -0.27101629 23.73627908 -3.75 23.375 C-7.21620794 21.98851682 -8.4885818 20.74969941 -10.625 17.6875 C-12.02268614 13.57209081 -12.17583346 10.49973252 -10.75 6.375 C-8.25 3.4375 -8.25 3.4375 -5.75 1.375 C-4.10843264 -0.26656736 -2.25784199 0.08684008 0 0 Z " fill="#549637" transform="translate(74.75,62.625)"/>
</svg>
