<?xml version="1.0" encoding="UTF-8"?>
<svg version="1.1" xmlns="http://www.w3.org/2000/svg" width="225" height="225">
<path d="M0 0 C0.84691406 0.68707031 1.69382813 1.37414062 2.56640625 2.08203125 C4.83524053 3.87014944 6.33772992 4.6520295 9.0625 5.4375 C13.04365952 6.86682607 14.86333103 8.20147738 17 12 C20.59537765 21.21412801 20.54626732 30.23005138 19.625 39.9609375 C18.88408972 47.82266226 19.15350373 53.84123184 22.0625 61.3359375 C24.68999479 68.80240188 22.88310912 76.82071643 20 84 C17.84107463 87.17201333 15.68543021 88.77152326 12 90 C11.85304687 91.50240234 11.85304687 91.50240234 11.703125 93.03515625 C10.92972183 100.16228134 10.17755171 105.99476942 6 112 C5.29713697 113.65172812 4.61344757 115.31301918 4 117 C4.76054687 117.19207031 5.52109375 117.38414062 6.3046875 117.58203125 C10.04534606 119.54994293 10.49618001 121.83644569 12.125 125.6875 C15.258778 131.79230222 18.37707063 134.40375742 24.875 136.5 C26.52617418 137.01031021 28.17862783 137.51649069 29.83203125 138.01953125 C37.18198483 140.2599584 44.20329231 143.26899974 51.2835083 146.23339844 C54.23510111 147.46908495 57.19078376 148.69477935 60.14701843 149.91931152 C61.53851669 150.49632018 62.92933003 151.07498369 64.31941223 151.65539551 C68.09318798 153.22813179 71.88714244 154.72206419 75.7109375 156.16796875 C79.40871409 157.63797214 82.15485948 159.34928509 85.0625 162.125 C85.79597656 162.80820313 86.52945313 163.49140625 87.28515625 164.1953125 C96.2169045 173.59501112 90 190.03348694 90 203 C15.75 203 -58.5 203 -135 203 C-135 169 -135 169 -131 162 C-124.70478965 156.63900545 -116.35150708 153.9807888 -108.6875 151.1875 C-99.32898634 147.68965126 -90.10651019 143.99643904 -80.95800781 139.98217773 C-76.49922532 138.03486019 -72.06313183 136.27560417 -67.4375 134.75 C-62.27382698 132.92035208 -60.33684515 130.55573337 -57.8046875 125.71484375 C-57.37414062 124.90144531 -56.94359375 124.08804688 -56.5 123.25 C-55.92765625 122.08210938 -55.92765625 122.08210938 -55.34375 120.890625 C-54 119 -54 119 -51.84375 118.234375 C-50.93109375 118.11835938 -50.93109375 118.11835938 -50 118 C-50.40992187 117.47535156 -50.81984375 116.95070313 -51.2421875 116.41015625 C-55.70849994 109.9884965 -56.83984602 104.55303361 -57.06591797 96.89086914 C-57.14871155 94.46612033 -57.14871155 94.46612033 -58 91 C-60.84456159 88.66600978 -60.84456159 88.66600978 -64 87 C-67.91168909 82.07020005 -68.44231287 75.90217068 -68.875 69.8125 C-68.92438721 69.13541992 -68.97377441 68.45833984 -69.0246582 67.76074219 C-69.17280982 64.57255067 -69.05351814 62.14529184 -67.9453125 59.13671875 C-66.80065877 55.33854955 -67.19385557 52.58833071 -67.68505859 48.69873047 C-69.301809 34.8448088 -69.71275138 20.3953176 -61.1875 8.75 C-55.99957971 3.31662972 -48.87306516 0.6782542 -42 -2 C-40.63875 -2.54527344 -40.63875 -2.54527344 -39.25 -3.1015625 C-26.76807034 -7.27520773 -11.3330135 -6.87946506 0 0 Z " fill="#CACDD8" transform="translate(135,22)"/>
</svg>
